<?xml version="1.0" encoding="UTF-8" standalone="no"?>
<!-- Svg Vector Icons : http://www.onlinewebfonts.com/icon -->

<svg
   xmlns:dc="http://purl.org/dc/elements/1.1/"
   xmlns:cc="http://creativecommons.org/ns#"
   xmlns:rdf="http://www.w3.org/1999/02/22-rdf-syntax-ns#"
   xmlns:svg="http://www.w3.org/2000/svg"
   xmlns="http://www.w3.org/2000/svg"
   xmlns:sodipodi="http://sodipodi.sourceforge.net/DTD/sodipodi-0.dtd"
   xmlns:inkscape="http://www.inkscape.org/namespaces/inkscape"
   version="1.1"
   x="0px"
   y="0px"
   viewBox="0 0 1000 1000"
   enable-background="new 0 0 1000 1000"
   xml:space="preserve"
   id="svg4136"
   inkscape:version="0.91 r13725"
   sodipodi:docname="badminton.svg"><defs
     id="defs4178" /><sodipodi:namedview
     pagecolor="#ffffff"
     bordercolor="#666666"
     borderopacity="1"
     objecttolerance="10"
     gridtolerance="10"
     guidetolerance="10"
     inkscape:pageopacity="0"
     inkscape:pageshadow="2"
     inkscape:window-width="1680"
     inkscape:window-height="1001"
     id="namedview4176"
     showgrid="false"
     inkscape:zoom="0.29168155"
     inkscape:cx="208.2245"
     inkscape:cy="389.97639"
     inkscape:window-x="-8"
     inkscape:window-y="-8"
     inkscape:window-maximized="1"
     inkscape:current-layer="svg4136" /><metadata
     id="metadata4138"> Svg Vector Icons : http://www.onlinewebfonts.com/icon <rdf:RDF><cc:Work
     rdf:about=""><dc:format>image/svg+xml</dc:format><dc:type
       rdf:resource="http://purl.org/dc/dcmitype/StillImage" /></cc:Work></rdf:RDF></metadata><g
     id="g4140"
     style="fill:#d45500"><g
       id="g4142"
       style="fill:#d45500"><path
         d="M932.6,625.2l-80.2-80.2c-10.6-10.6-27.9-10.6-38.5,0l-20.4,20.4L464.6,23.1c-4.3-7.1-11.7-11.9-20-12.9c-8.3-1-16.6,1.9-22.5,7.8l-56.2,56.2c-5.8,5.8-8.7,13.9-7.8,22.1l13.7,129l-129.6-13.1c-1-0.1-15.5-1.7-23,5.1c-9.1,8.3-7.1,22-7.1,22c0,1,0.1,1.9,0.2,2.9l13.1,129.6l-129-13.7c-8.2-0.9-16.3,2-22.1,7.8L18,422.1c-5.9,5.9-8.8,14.2-7.8,22.5c1,8.3,5.8,15.7,12.9,20l542.3,328.9l-20.4,20.4c-10.6,10.6-10.6,27.9,0,38.5l80.3,80.3c37,37,86.2,57.4,138.5,57.4c0,0,0,0,0,0c52.3,0,101.5-20.4,138.5-57.4l30.4-30.4c37-37,57.4-86.2,57.4-138.5C990,711.4,969.6,662.2,932.6,625.2z M753.3,604.2l-51.2,51.2L604,507.2l56.4-56.4L753.3,604.2z M631.3,402.9l-57.9,57.9l-78.5-118.7l62-62L631.3,402.9z M600.5,600.5l-54-35.7l18.3-18.3L600.5,600.5z M534.1,500.1l-33.9,33.9l-118.7-78.5l74.1-74.1L534.1,500.1z M436,81l91.7,151.3l-63.6,63.6l-35.9-54.2l-14.7-138.2L436,81z M389.6,281.8l35.3,53.4l-89.7,89.7l-53.4-35.3l-12.1-119.9L389.6,281.8z M81,436l22.5-22.5l138.2,14.7l54.2,35.9l-63.6,63.6L81,436z M280.2,556.8l62-62l118.7,78.5l-57.9,57.9L280.2,556.8z M450.8,660.3l56.4-56.3l148.2,98.1l-51.2,51.2L450.8,660.3z M894.1,863.8l-30.4,30.4c-26.7,26.7-62.3,41.4-100,41.4c0,0,0,0,0,0c-37.8,0-73.3-14.7-100.1-41.4l-61-61l230.5-230.5l61,61c26.7,26.7,41.4,62.3,41.4,100S920.9,837,894.1,863.8z"
         id="path4144"
         style="fill:#d45500" /></g><g
       id="g4146"
       style="fill:#d45500" /><g
       id="g4148"
       style="fill:#d45500" /><g
       id="g4150"
       style="fill:#d45500" /><g
       id="g4152"
       style="fill:#d45500" /><g
       id="g4154"
       style="fill:#d45500" /><g
       id="g4156"
       style="fill:#d45500" /><g
       id="g4158"
       style="fill:#d45500" /><g
       id="g4160"
       style="fill:#d45500" /><g
       id="g4162"
       style="fill:#d45500" /><g
       id="g4164"
       style="fill:#d45500" /><g
       id="g4166"
       style="fill:#d45500" /><g
       id="g4168"
       style="fill:#d45500" /><g
       id="g4170"
       style="fill:#d45500" /><g
       id="g4172"
       style="fill:#d45500" /><g
       id="g4174"
       style="fill:#d45500" /></g></svg>